
<global>
amp_veltrack=0
ampeg_release=0.35
</global>

<group>
group_label=PP
seq_length=1
seq_position=1
xf_cccurve=gain
xfin_hicc1=42
xfout_hicc1=85
xfout_locc1=42

<region>
hikey=g#5
hivel=127
lokey=g5
loop_end=237098
loop_mode=loop_continuous
loop_start=84485
loop_xfade=38153
lovel=0
offset=3970
pitch_keycenter=g#5
sample=Violas_trill_half_PP_G#5.opus
</region>

<region>
hikey=g#4
hivel=127
lokey=g4
loop_end=226999
loop_mode=loop_continuous
loop_start=80886
loop_xfade=36528
lovel=0
offset=2760
pitch_keycenter=g#4
sample=Violas_trill_half_PP_G#4.opus
</region>

<region>
hikey=g#3
hivel=127
lokey=g3
loop_end=228580
loop_mode=loop_continuous
loop_start=81450
loop_xfade=36782
lovel=0
offset=2466
pitch_keycenter=g#3
sample=Violas_trill_half_PP_G#3.opus
</region>

<region>
hikey=f#5
hivel=127
lokey=f5
loop_end=227816
loop_mode=loop_continuous
loop_start=81178
loop_xfade=36659
lovel=0
offset=827
pitch_keycenter=f#5
sample=Violas_trill_half_PP_F#5.opus
</region>

<region>
hikey=f#4
hivel=127
lokey=f4
loop_end=231088
loop_mode=loop_continuous
loop_start=82344
loop_xfade=37186
lovel=0
offset=447
pitch_keycenter=f#4
sample=Violas_trill_half_PP_F#4.opus
</region>

<region>
hikey=f#3
hivel=127
lokey=f3
loop_end=232111
loop_mode=loop_continuous
loop_start=82708
loop_xfade=37350
lovel=0
offset=1873
pitch_keycenter=f#3
sample=Violas_trill_half_PP_F#3.opus
</region>

<region>
hikey=e5
hivel=127
lokey=d#5
loop_end=239485
loop_mode=loop_continuous
loop_start=85335
loop_xfade=38537
lovel=0
offset=2433
pitch_keycenter=e5
sample=Violas_trill_half_PP_E5.opus
</region>

<region>
hikey=e4
hivel=127
lokey=d#4
loop_end=270317
loop_mode=loop_continuous
loop_start=96322
loop_xfade=43498
lovel=0
offset=2887
pitch_keycenter=e4
sample=Violas_trill_half_PP_E4.opus
</region>

<region>
hikey=e3
hivel=127
lokey=d#3
loop_end=236832
loop_mode=loop_continuous
loop_start=84390
loop_xfade=38110
lovel=0
offset=314
pitch_keycenter=e3
sample=Violas_trill_half_PP_E3.opus
</region>

<region>
hikey=d5
hivel=127
lokey=c#5
loop_end=249530
loop_mode=loop_continuous
loop_start=88915
loop_xfade=40153
lovel=0
offset=5369
pitch_keycenter=d5
sample=Violas_trill_half_PP_D5.opus
</region>

<region>
hikey=d4
hivel=127
lokey=c#4
loop_end=272051
loop_mode=loop_continuous
loop_start=96940
loop_xfade=43777
lovel=0
offset=519
pitch_keycenter=d4
sample=Violas_trill_half_PP_D4.opus
</region>

<region>
hikey=d3
hivel=127
lokey=c#3
loop_end=269748
loop_mode=loop_continuous
loop_start=96119
loop_xfade=43407
lovel=0
offset=187
pitch_keycenter=d3
sample=Violas_trill_half_PP_D3.opus
</region>

<region>
hikey=c6
hivel=127
lokey=b5
loop_end=240153
loop_mode=loop_continuous
loop_start=85574
loop_xfade=38644
lovel=0
offset=14806
pitch_keycenter=C6
sample=Violas_trill_half_PP_C6.opus
</region>

<region>
hikey=c5
hivel=127
lokey=b4
loop_end=271989
loop_mode=loop_continuous
loop_start=96918
loop_xfade=43767
lovel=0
offset=8749
pitch_keycenter=c5
sample=Violas_trill_half_PP_C5.opus
</region>

<region>
hikey=c4
hivel=127
lokey=b3
loop_end=239861
loop_mode=loop_continuous
loop_start=85470
loop_xfade=38597
lovel=0
offset=3780
pitch_keycenter=c4
sample=Violas_trill_half_PP_C4.opus
</region>

<region>
hivel=127
key=c3
loop_end=236571
loop_mode=loop_continuous
loop_start=84297
loop_xfade=38068
lovel=0
offset=3713
sample=Violas_trill_half_PP_C3.opus
</region>

<region>
hikey=a#5
hivel=127
lokey=a5
loop_end=269920
loop_mode=loop_continuous
loop_start=96180
loop_xfade=43435
lovel=0
offset=2641
pitch_keycenter=a#5
sample=Violas_trill_half_PP_A#5.opus
</region>

<region>
hikey=a#4
hivel=127
lokey=a4
loop_end=259882
loop_mode=loop_continuous
loop_start=92604
loop_xfade=41819
lovel=0
offset=2702
pitch_keycenter=a#4
sample=Violas_trill_half_PP_A#4.opus
</region>

<region>
hikey=a#3
hivel=127
lokey=a3
loop_end=225629
loop_mode=loop_continuous
loop_start=80398
loop_xfade=36307
lovel=0
offset=1179
pitch_keycenter=a#3
sample=Violas_trill_half_PP_A#3.opus
</region>
</group>

<group>
group_label=MF
seq_length=1
seq_position=1
xf_cccurve=gain
xfin_hicc1=85
xfin_locc1=42
xfout_hicc1=127
xfout_locc1=85

<region>
hikey=A#5
hivel=127
lokey=G#5
loop_end=234014
loop_mode=loop_continuous
loop_start=83386
loop_xfade=37657
lovel=0
offset=1306
pitch_keycenter=A#5
sample=Violas_trill_half_MF_G#5.opus
</region>

<region>
hikey=A4
hivel=127
lokey=g4
loop_end=235282
loop_mode=loop_continuous
loop_start=83838
loop_xfade=37861
lovel=0
offset=2525
pitch_keycenter=g#4
sample=Violas_trill_half_MF_G#4.opus
</region>

<region>
hikey=g#3
hivel=127
lokey=g3
loop_end=225740
loop_mode=loop_continuous
loop_start=80438
loop_xfade=36325
lovel=0
offset=373
pitch_keycenter=g#3
sample=Violas_trill_half_MF_G#3.opus
</region>

<region>
hikey=G5
hivel=127
lokey=f5
loop_end=233803
loop_mode=loop_continuous
loop_start=83311
loop_xfade=37623
lovel=0
offset=780
pitch_keycenter=f#5
sample=Violas_trill_half_MF_F#5.opus
</region>

<region>
hikey=f#4
hivel=127
lokey=f4
loop_end=234674
loop_mode=loop_continuous
loop_start=83621
loop_xfade=37763
lovel=0
offset=1454
pitch_keycenter=f#4
sample=Violas_trill_half_MF_F#4.opus
</region>

<region>
hikey=f#3
hivel=127
lokey=f3
loop_end=232387
loop_mode=loop_continuous
loop_start=82806
loop_xfade=37395
lovel=0
offset=1021
pitch_keycenter=f#3
sample=Violas_trill_half_MF_F#3.opus
</region>

<region>
hikey=e5
hivel=127
lokey=d#5
loop_end=233896
loop_mode=loop_continuous
loop_start=83344
loop_xfade=37638
lovel=0
offset=1512
pitch_keycenter=e5
sample=Violas_trill_half_MF_E5.opus
</region>

<region>
hikey=e4
hivel=127
lokey=d#4
loop_end=227711
loop_mode=loop_continuous
loop_start=81140
loop_xfade=36642
lovel=0
offset=3177
pitch_keycenter=e4
sample=Violas_trill_half_MF_E4.opus
</region>

<region>
hikey=e3
hivel=127
lokey=d#3
loop_end=235773
loop_mode=loop_continuous
loop_start=84013
loop_xfade=37940
lovel=0
pitch_keycenter=e3
sample=Violas_trill_half_MF_E3.opus
</region>

<region>
hikey=d4
hivel=127
lokey=c#4
loop_end=242497
loop_mode=loop_continuous
loop_start=86409
loop_xfade=39022
lovel=0
offset=1733
pitch_keycenter=d4
sample=Violas_trill_half_MF_D4.opus
</region>

<region>
hikey=d3
hivel=127
lokey=c#3
loop_end=235245
loop_mode=loop_continuous
loop_start=83825
loop_xfade=37855
lovel=0
offset=1221
pitch_keycenter=d3
sample=Violas_trill_half_MF_D3.opus
</region>

<region>
hikey=D5
hivel=127
lokey=C#5
loop_end=236699
loop_mode=loop_continuous
loop_start=84343
loop_xfade=38089
lovel=0
offset=3464
pitch_keycenter=D5
sample=Violas_trill_half_MF_C5.opus
</region>

<region>
hikey=c4
hivel=127
lokey=b3
loop_end=240167
loop_mode=loop_continuous
loop_start=85578
loop_xfade=38647
lovel=0
offset=3285
pitch_keycenter=c4
sample=Violas_trill_half_MF_C4.opus
</region>

<region>
hivel=127
key=c3
loop_end=234786
loop_mode=loop_continuous
loop_start=83661
loop_xfade=37781
lovel=0
offset=4666
sample=Violas_trill_half_MF_C3.opus
</region>

<region>
hikey=C6
hivel=127
lokey=B5
loop_end=230381
loop_mode=loop_continuous
loop_start=82092
loop_xfade=37072
lovel=0
offset=1956
pitch_keycenter=C6
sample=Violas_trill_half_MF_A#5.opus
</region>

<region>
hikey=C5
hivel=127
lokey=A#4
loop_end=238770
loop_mode=loop_continuous
loop_start=85081
loop_xfade=38422
lovel=0
offset=3158
pitch_keycenter=C5
sample=Violas_trill_half_MF_A#4.opus
</region>

<region>
hikey=a#3
hivel=127
lokey=a3
loop_end=235795
loop_mode=loop_continuous
loop_start=84021
loop_xfade=37943
lovel=0
offset=1310
pitch_keycenter=a#3
sample=Violas_trill_half_MF_A#3.opus
</region>
</group>

<group>
group_label=FF
seq_length=1
seq_position=1
xf_cccurve=gain
xfin_hicc1=127
xfin_locc1=85
xfout_hicc1=127
xfout_locc1=127

<region>
hikey=g#5
hivel=127
lokey=g5
loop_end=238006
loop_mode=loop_continuous
loop_start=84809
loop_xfade=38299
lovel=0
pitch_keycenter=g#5
sample=Violas_trill_half_FF_G#5.opus
</region>

<region>
hikey=A#4
hivel=127
lokey=G#4
loop_end=237163
loop_mode=loop_continuous
loop_start=84508
loop_xfade=38163
lovel=0
offset=467
pitch_keycenter=A#4
sample=Violas_trill_half_FF_G#4.opus
</region>

<region>
hikey=g#3
hivel=127
lokey=g3
loop_end=239332
loop_mode=loop_continuous
loop_start=85281
loop_xfade=38512
lovel=0
offset=877
pitch_keycenter=g#3
sample=Violas_trill_half_FF_G#3.opus
</region>

<region>
hikey=f#5
hivel=127
lokey=f5
loop_end=236475
loop_mode=loop_continuous
loop_start=84263
loop_xfade=38053
lovel=0
offset=2516
pitch_keycenter=f#5
sample=Violas_trill_half_FF_F#5.opus
</region>

<region>
hikey=G4
hivel=127
lokey=F4
loop_end=240690
loop_mode=loop_continuous
loop_start=85765
loop_xfade=38731
lovel=0
offset=75
pitch_keycenter=f#4
sample=Violas_trill_half_FF_F#4.opus
</region>

<region>
hikey=f#3
hivel=127
lokey=f3
loop_end=240078
loop_mode=loop_continuous
loop_start=85547
loop_xfade=38632
lovel=0
offset=245
pitch_keycenter=f#3
sample=Violas_trill_half_FF_F#3.opus
</region>

<region>
hikey=e4
hivel=127
lokey=d#4
loop_end=239498
loop_mode=loop_continuous
loop_start=85340
loop_xfade=38539
lovel=0
offset=1883
pitch_keycenter=e4
sample=Violas_trill_half_FF_E4.opus
</region>

<region>
hikey=e3
hivel=127
lokey=d#3
loop_end=239969
loop_mode=loop_continuous
loop_start=85508
loop_xfade=38615
lovel=0
pitch_keycenter=e3
sample=Violas_trill_half_FF_E3.opus
</region>

<region>
hikey=E5
hivel=127
lokey=D#5
loop_end=239317
loop_mode=loop_continuous
loop_start=85276
loop_xfade=38510
lovel=0
pitch_keycenter=E5
sample=Violas_trill_half_FF_D5.opus
</region>

<region>
hikey=d4
hivel=127
lokey=c#4
loop_end=241884
loop_mode=loop_continuous
loop_start=86190
loop_xfade=38923
lovel=0
offset=865
pitch_keycenter=d4
sample=Violas_trill_half_FF_D4.opus
</region>

<region>
hikey=d3
hivel=127
lokey=c#3
loop_end=243824
loop_mode=loop_continuous
loop_start=86882
loop_xfade=39235
lovel=0
offset=341
pitch_keycenter=d3
sample=Violas_trill_half_FF_D3.opus
</region>

<region>
hikey=c6
hivel=127
lokey=b5
loop_end=237350
loop_mode=loop_continuous
loop_start=84575
loop_xfade=38193
lovel=0
offset=622
pitch_keycenter=C6
sample=Violas_trill_half_FF_C6.opus
</region>

<region>
hikey=D5
hivel=127
lokey=C#5
loop_end=241865
loop_mode=loop_continuous
loop_start=86184
loop_xfade=38920
lovel=0
offset=867
pitch_keycenter=D5
sample=Violas_trill_half_FF_C5.opus
</region>

<region>
hikey=c4
hivel=127
lokey=b3
loop_end=245739
loop_mode=loop_continuous
loop_start=87564
loop_xfade=39543
lovel=0
offset=2844
pitch_keycenter=c4
sample=Violas_trill_half_FF_C4.opus
</region>

<region>
hivel=127
key=c3
loop_end=240917
loop_mode=loop_continuous
loop_start=85846
loop_xfade=38767
lovel=0
offset=1383
sample=Violas_trill_half_FF_C3.opus
</region>

<region>
hikey=a#5
hivel=127
lokey=a5
loop_end=241864
loop_mode=loop_continuous
loop_start=86183
loop_xfade=38920
lovel=0
offset=357
pitch_keycenter=a#5
sample=Violas_trill_half_FF_A#5.opus
</region>

<region>
hikey=C5
hivel=127
lokey=B4
loop_end=237210
loop_mode=loop_continuous
loop_start=84525
loop_xfade=38171
lovel=0
offset=1091
pitch_keycenter=C5
sample=Violas_trill_half_FF_A#4.opus
</region>

<region>
hikey=a#3
hivel=127
lokey=a3
loop_end=245342
loop_mode=loop_continuous
loop_start=87423
loop_xfade=39479
lovel=0
offset=1167
pitch_keycenter=a#3
sample=Violas_trill_half_FF_A#3.opus
</region>
</group>